<?xml version="1.0" encoding="UTF-8" standalone="no"?>
<svg
   height="450"
   width="300"
   version="1.1"
   id="svg3"
   sodipodi:docname="mecrisp-cube-logo-txt.svg"
   inkscape:version="1.3.1 (9b9bdc1480, 2023-11-25, custom)"
   xmlns:inkscape="http://www.inkscape.org/namespaces/inkscape"
   xmlns:sodipodi="http://sodipodi.sourceforge.net/DTD/sodipodi-0.dtd"
   xmlns="http://www.w3.org/2000/svg"
   xmlns:svg="http://www.w3.org/2000/svg">
  <path
     d="m 90.963884,440.09335 q -2.5754,1.43012 -5.40834,2.14517 -2.83293,0.71506 -5.9602,0.71506 -11.11101,0 -16.96085,-7.90536 -5.84983,-7.90535 -5.84983,-22.8421 0,-14.97648 5.84983,-22.88183 5.84984,-7.90536 16.96085,-7.90536 3.12727,0 5.99699,0.71506 2.86973,0.71505 5.37155,2.14517 v 13.02993 q -2.79615,-2.78078 -5.44513,-4.05198 -2.61219,-1.31094 -5.40834,-1.31094 -5.9602,0 -9.0139,5.12457 -3.01689,5.08485 -3.01689,15.13538 0,10.0108 3.01689,15.13538 3.0537,5.08485 9.0139,5.08485 2.79615,0 5.40834,-1.27121 2.64898,-1.31094 5.44513,-4.09172 z m 9.492196,-20.1805 v -37.42133 h 10.85346 v 40.36101 q 0,4.44924 2.09712,6.99167 2.09711,2.50269 5.81304,2.50269 3.71593,0 5.81305,-2.50269 2.0971,-2.54243 2.0971,-6.99167 v -40.36101 h 10.85347 v 37.42133 q 0,12.07652 -4.45176,17.55862 -4.45175,5.48211 -14.31186,5.48211 -9.82331,0 -14.31186,-5.48211 -4.45176,-5.4821 -4.45176,-17.55862 z m 56.5484,-5.04514 v 17.55864 h 7.21113 q 5.18759,0 7.2479,-1.90682 2.09712,-1.90682 2.09712,-6.63414 0,-4.80678 -2.1707,-6.91222 -2.17069,-2.10546 -7.17432,-2.10546 z m 0,-23.12018 v 13.78472 h 7.21113 q 4.12064,0 5.84983,-1.58902 1.76599,-1.58901 1.76599,-5.24375 0,-3.65473 -1.80278,-5.28347 -1.76599,-1.66848 -5.81304,-1.66848 z m -10.48554,-9.33547 h 17.69667 q 9.16106,0 13.75998,3.77392 4.63573,3.73418 4.63573,11.20256 0,5.72046 -2.72257,8.93822 -2.72257,3.21776 -7.98373,3.73418 6.29132,0.67534 9.45539,4.56842 3.20085,3.8931 3.20085,10.88477 0,8.58069 -4.78289,12.43404 -4.78288,3.85337 -15.56276,3.85337 h -17.69667 z m 81.16186,59.38948 h -34.21601 v -59.31002 h 34.21601 v 10.3286 h -23.36255 v 12.79158 h 21.15507 v 10.3286 h -21.15507 v 15.53264 h 23.36255 z"
     id="text3"
     style="font-weight:bold;font-size:78.2956px;font-family:'DejaVu Sans Mono';-inkscape-font-specification:'DejaVu Sans Mono, Bold';fill:#ff0000;stroke-width:2.44674"
     aria-label="CUBE" />
  <defs
     id="defs3" />
  <sodipodi:namedview
     id="namedview3"
     pagecolor="#ffffff"
     bordercolor="#000000"
     borderopacity="0.25"
     inkscape:showpageshadow="2"
     inkscape:pageopacity="0.0"
     inkscape:pagecheckerboard="0"
     inkscape:deskcolor="#d1d1d1"
     inkscape:zoom="1.36"
     inkscape:cx="116.54412"
     inkscape:cy="173.52941"
     inkscape:window-width="1866"
     inkscape:window-height="1016"
     inkscape:window-x="0"
     inkscape:window-y="0"
     inkscape:window-maximized="1"
     inkscape:current-layer="svg3"
     inkscape:lockguides="true" />
  <desc
     id="desc1">Flag of Switzerland</desc>
  <rect
     fill="#ff0000"
     height="300"
     width="300"
     x="0.16658835"
     id="rect1"
     style="fill:#2b0000"
     y="73.84536" />
  <rect
     fill="#ffffff"
     height="60"
     width="200"
     x="50.166588"
     y="193.84537"
     id="rect2" />
  <rect
     fill="#ffffff"
     height="200"
     width="60"
     x="120.16659"
     y="123.84536"
     id="rect3" />
  <rect
     style="fill:#ff0000;stroke-width:1.00139"
     id="rect4"
     width="69.975014"
     height="70.094208"
     x="180.12984"
     y="123.73693" />
  <rect
     style="fill:#ff0000;stroke-width:1.00139"
     id="rect4-5"
     width="69.975014"
     height="70.094208"
     x="50.271858"
     y="124.12811" />
  <rect
     style="fill:#ff0000;stroke-width:1.00139"
     id="rect4-4"
     width="69.975014"
     height="70.094208"
     x="50.250328"
     y="253.63394" />
  <rect
     style="fill:#ff0000;stroke-width:1.00169"
     id="rect4-7"
     width="69.940155"
     height="70.170837"
     x="180.21014"
     y="253.84192" />
  <path
     d="m 219.20684,318.42312 h 30.8948 v 16.125 l -24.01302,30.00001 h -18.88829 l 12.00651,-30.00001 z"
     id="text4"
     style="font-size:239.948px;-inkscape-font-specification:'sans-serif, Normal';fill:#ff0000;stroke-width:1.24973"
     aria-label="," />
  <text
     xml:space="preserve"
     style="font-style:normal;font-variant:normal;font-weight:normal;font-stretch:normal;font-size:32px;font-family:sans-serif;-inkscape-font-specification:'sans-serif, ';font-variant-ligatures:normal;font-variant-caps:normal;font-variant-numeric:normal;font-variant-east-asian:normal;fill:#2b0000"
     x="-1.8806896"
     y="-42.993862"
     id="text2"><tspan
       sodipodi:role="line"
       id="tspan2"
       x="-1.8806896"
       y="-42.993862" /></text>
  <path
     d="M 1.1592563,8.7556252 H 13.628367 l 6.30541,26.2296498 6.269981,-26.2296498 h 12.53996 V 68.543216 h -8.9976 V 20.649075 l -5.596931,26.14956 h -8.32455 L 10.156856,20.649075 V 68.543216 H 1.1592563 Z M 80.685288,68.543216 H 47.741318 V 8.7556252 h 32.94397 V 19.167395 h -22.494 v 12.89458 h 20.36859 v 10.41177 h -20.36859 v 15.6577 h 22.494 z m 43.075132,-1.72194 q -2.47966,1.44163 -5.20727,2.16244 -2.72762,0.72081 -5.73863,0.72081 -10.69794,0 -16.330292,-7.969001 -5.63236,-7.96901 -5.63236,-23.02604 0,-15.09706 5.63236,-23.06607 5.632352,-7.9690098 16.330292,-7.9690098 3.01101,0 5.77405,0.72081 2.76304,0.72082 5.17185,2.1624498 v 13.13485 q -2.6922,-2.80317 -5.2427,-4.08462 -2.51508,-1.32149 -5.20727,-1.32149 -5.73863,0 -8.67879,5.16584 -2.90474,5.12579 -2.90474,15.25724 0,10.09141 2.90474,15.25725 2.94016,5.1258 8.67879,5.1258 2.69219,0 5.20727,-1.28145 2.5505,-1.3215 5.2427,-4.12466 z m 33.97125,-26.509971 q 1.55864,0.3604 2.6922,1.6819 1.16898,1.28145 2.83389,5.0457 l 9.56437,21.504311 h -11.47725 l -6.37625,-15.097071 q -0.28339,-0.64072 -0.7439,-1.76199 -2.79846,-6.76765 -6.58879,-6.76765 h -3.32982 V 68.543216 H 133.85615 V 8.7556252 h 15.09046 q 10.20201,0 14.62996,4.0846198 4.46337,4.08462 4.46337,13.29503 0,6.16697 -2.65677,9.81109 -2.65677,3.64412 -7.6515,4.36494 z m -13.42555,-21.62445 v 16.29842 H 149.23 q 4.28626,0 6.12829,-1.88212 1.87745,-1.92218 1.87745,-6.28711 0,-4.36494 -1.84203,-6.24706 -1.84203,-1.88213 -6.16371,-1.88213 z m 34.60887,0.48054 V 8.7556252 h 31.4916 V 19.167395 h -10.52082 v 38.96405 h 10.52082 v 10.411771 h -31.4916 V 58.131445 h 10.52081 v -38.96405 z m 55.65051,23.14617 q -7.89947,-3.40385 -10.69794,-7.12806 -2.79846,-3.76425 -2.79846,-10.09141 0,-8.12919 4.60507,-12.77444 4.60507,-4.6452498 12.64623,-4.6452498 3.64863,0 7.29727,0.96109 3.64863,0.92104 7.22642,2.7631198 v 11.53304 q -3.36525,-2.68304 -6.83676,-4.08462 -3.47152,-1.40158 -6.87219,-1.40158 -3.79032,0 -5.80947,1.72194 -2.01915,1.72195 -2.01915,4.92557 0,2.48281 1.45237,4.12466 1.4878,1.60181 6.16371,3.56403 l 4.4988,1.92218 q 6.37626,2.64298 9.38726,7.00792 3.01101,4.36493 3.01101,11.01245 0,9.05023 -4.74676,13.535301 -4.71135,4.44502 -14.27572,4.44502 -3.93203,0 -7.89947,-1.08122 -3.93202,-1.04117 -7.61608,-3.12353 V 53.285965 q 4.17999,3.36381 8.07659,5.00566 3.93202,1.64186 7.75777,1.64186 3.86117,0 5.98659,-1.96222 2.12542,-2.00226 2.12542,-5.56629 0,-2.68304 -1.41695,-4.6853 -1.41694,-2.04231 -4.10914,-3.20362 z m 41.79989,-23.62671 v 17.53983 h 4.28626 q 5.13643,0 7.191,-1.96222 2.08999,-1.96222 2.08999,-6.8077 0,-4.84547 -2.08999,-6.80769 -2.05457,-1.96222 -7.191,-1.96222 z M 265.91542,8.7556252 h 14.34657 q 10.9459,0 15.72809,4.4049798 4.81761,4.40498 4.81761,14.29616 0,9.89119 -4.81761,14.29617 -4.78219,4.40497 -15.72809,4.40497 h -3.8966 v 22.385311 h -10.44997 z"
     id="text1"
     style="font-weight:bold;font-size:77.1351px;font-family:'DejaVu Sans Mono';-inkscape-font-specification:'DejaVu Sans Mono, Bold';fill:#ff0000;stroke-width:2.41047"
     aria-label="MECRISP" />
</svg>
