<?xml version="1.0" encoding="UTF-8" standalone="no"?>
<!-- Created with Inkscape (http://www.inkscape.org/) -->

<svg
   width="3in"
   height="4in"
   viewBox="0 0 76.200001 101.6"
   version="1.1"
   id="svg1"
   inkscape:version="1.4.2 (2aeb623e1d, 2025-05-12)"
   sodipodi:docname="overlay.svg"
   inkscape:export-filename="../../../../../home/psi/STM32CubeIDE/workspace_1.15.1/MecrispCubeCalc/sdcard/man/img/overlay.png"
   inkscape:export-xdpi="600"
   inkscape:export-ydpi="600"
   xmlns:inkscape="http://www.inkscape.org/namespaces/inkscape"
   xmlns:sodipodi="http://sodipodi.sourceforge.net/DTD/sodipodi-0.dtd"
   xmlns="http://www.w3.org/2000/svg"
   xmlns:svg="http://www.w3.org/2000/svg">
  <sodipodi:namedview
     id="namedview1"
     pagecolor="#ffffff"
     bordercolor="#000000"
     borderopacity="0.25"
     inkscape:showpageshadow="2"
     inkscape:pageopacity="0.0"
     inkscape:pagecheckerboard="0"
     inkscape:deskcolor="#d1d1d1"
     inkscape:document-units="mm"
     showgrid="true"
     inkscape:zoom="2.9077441"
     inkscape:cx="226.29226"
     inkscape:cy="232.65458"
     inkscape:window-width="1870"
     inkscape:window-height="1011"
     inkscape:window-x="0"
     inkscape:window-y="0"
     inkscape:window-maximized="1"
     inkscape:current-layer="layer1"
     inkscape:pageshadow="2">
    <inkscape:grid
       id="grid1"
       units="in"
       originx="0"
       originy="0"
       spacingx="2.5399999"
       spacingy="2.5400001"
       empcolor="#0099e5"
       empopacity="0.30196078"
       color="#0099e5"
       opacity="0.14901961"
       empspacing="1"
       dotted="false"
       gridanglex="30"
       gridanglez="30"
       visible="true" />
  </sodipodi:namedview>
  <defs
     id="defs1">
    <rect
       x="168.85539"
       y="186.30611"
       width="15.411432"
       height="10.375043"
       id="rect42" />
  </defs>
  <g
     inkscape:label="Layer 1"
     inkscape:groupmode="layer"
     id="layer1">
    <rect
       style="fill:#000000;stroke-width:0.314207"
       id="rect1"
       width="57.099491"
       height="81.33374"
       x="10.224233"
       y="10.226187"
       inkscape:export-filename="/home/psi/STM32CubeIDE/workspace_1.15.1/MecrispCubeCalc/sdcard/man/img/rect1.png"
       inkscape:export-xdpi="600"
       inkscape:export-ydpi="600" />
    <rect
       fill="#ff0000"
       height="12.653931"
       width="12.914113"
       x="52.117569"
       id="rect1-0"
       style="fill:#ff0000;stroke-width:0.0426111"
       y="20.986183" />
    <rect
       fill="#fff"
       height="2.530786"
       width="8.6094084"
       x="54.26992"
       y="26.047754"
       id="rect2-7"
       style="fill:#ff0000;stroke-width:0.0426111" />
    <rect
       fill="#fff"
       height="8.4359531"
       width="2.5828226"
       x="57.283218"
       y="23.095171"
       id="rect3"
       style="fill:#ff0000;stroke-width:0.0426111" />
    <rect
       style="fill:#2b0000;stroke-width:0.0426704"
       id="rect4"
       width="3.0122175"
       height="2.9565575"
       x="59.864456"
       y="23.090597" />
    <rect
       style="fill:#2b0000;stroke-width:0.0426704"
       id="rect4-5"
       width="3.0122175"
       height="2.9565575"
       x="54.274452"
       y="23.107098" />
    <rect
       style="fill:#2b0000;stroke-width:0.0426704"
       id="rect4-4"
       width="3.0122175"
       height="2.9565575"
       x="54.273529"
       y="28.569622" />
    <rect
       style="fill:#2b0000;stroke-width:0.0426831"
       id="rect4-7"
       width="3.0107167"
       height="2.9597898"
       x="59.867912"
       y="28.578394" />
    <path
       d="m 61.546603,31.302416 h 1.32993 v 0.680149 l -1.03369,1.265393 h -0.813085 l 0.516845,-1.265393 z"
       id="text4"
       style="font-size:239.948px;-inkscape-font-specification:'sans-serif, Normal';fill:#2b0000;stroke-width:0.0532525"
       aria-label="," />
    <circle
       style="fill:#ffffff;stroke-width:0.264583"
       id="path1-6-8"
       cx="43.299999"
       cy="77"
       r="2" />
    <circle
       style="fill:#ffffff;stroke-width:0.264583"
       id="path1-6-9-1"
       cx="53.5"
       cy="77"
       r="2" />
    <circle
       style="fill:#ffffff;stroke-width:0.264583"
       id="path1-6-9-0-3"
       cx="23"
       cy="77"
       r="2" />
    <circle
       style="fill:#ffffff;stroke-width:0.264583"
       id="path1-6-9-09-0"
       cx="33.200001"
       cy="77"
       r="2" />
    <circle
       style="fill:#ffffff;stroke-width:0.264583"
       id="path1-6-8-3"
       cx="53.5"
       cy="66.800003"
       r="2" />
    <circle
       style="fill:#ffffff;stroke-width:0.264583"
       id="path1-6-9-09-0-6"
       cx="43.299999"
       cy="66.800003"
       r="2" />
    <circle
       style="fill:#ffffff;stroke-width:0.264583"
       id="path1-6-9-0-31"
       cx="23"
       cy="66.800003"
       r="2" />
    <circle
       style="fill:#ffffff;stroke-width:0.264583"
       id="path1-6-9-09-7"
       cx="33.200001"
       cy="66.800003"
       r="2" />
    <circle
       style="fill:#ffffff;stroke-width:0.264583"
       id="path1-6-2"
       cx="57.39064"
       cy="56.552559"
       r="1.5" />
    <circle
       style="fill:#ffffff;stroke-width:0.264583"
       id="path1-6-9-0-8"
       cx="21.242392"
       cy="50.755745"
       r="2" />
    <circle
       style="fill:#ffffff;stroke-width:0.264583"
       id="path1-6-9-0-8-5"
       cx="14.101961"
       cy="14.312436"
       r="4" />
    <circle
       style="fill:#ffffff;stroke-width:0.264583"
       id="path1-6-9-0-8-5-9"
       cx="63.418201"
       cy="14.322794"
       r="4" />
    <circle
       style="fill:#ffffff;stroke-width:0.264583"
       id="path1-6-9-0-8-5-0"
       cx="63.259438"
       cy="87.649078"
       r="4" />
    <circle
       style="fill:#ffffff;stroke-width:0.264583"
       id="path1-6-9-0-8-5-0-6"
       cx="14.161335"
       cy="87.57653"
       r="4" />
    <circle
       style="fill:#ffffff;stroke-width:0.264583"
       id="path1-6-9-09-8"
       cx="38.767048"
       cy="51.465828"
       r="4" />
    <text
       xml:space="preserve"
       style="font-style:normal;font-variant:normal;font-weight:bold;font-stretch:normal;font-size:2.82223px;font-family:'DejaVu Sans';-inkscape-font-specification:'DejaVu Sans Bold';text-align:center;text-anchor:middle;fill:#d4aa00;stroke-width:0.264583"
       x="21.368298"
       y="57.460598"
       id="text16-5-9"><tspan
         sodipodi:role="line"
         id="tspan16-9-7"
         style="fill:#d4aa00;stroke-width:0.264583"
         x="21.368298"
         y="57.460598">OFF</tspan></text>
    <text
       xml:space="preserve"
       style="font-style:normal;font-variant:normal;font-weight:bold;font-stretch:normal;font-size:2.82223px;font-family:'DejaVu Sans';-inkscape-font-specification:'DejaVu Sans Bold';text-align:center;text-anchor:middle;fill:#d4aa00;stroke-width:0.264583"
       x="55.471664"
       y="51.950165"
       id="text16-5-9-0"><tspan
         sodipodi:role="line"
         id="tspan16-9-7-2"
         style="fill:#d4aa00;stroke-width:0.264583"
         x="55.471664"
         y="51.950165">V</tspan></text>
    <text
       xml:space="preserve"
       transform="scale(0.26458333)"
       id="text42"
       style="font-style:normal;font-variant:normal;font-weight:bold;font-stretch:normal;font-size:8px;font-family:'DejaVu Sans';-inkscape-font-specification:'DejaVu Sans Bold';text-align:center;white-space:pre;shape-inside:url(#rect42);display:inline;fill:#0000ff" />
    <text
       xml:space="preserve"
       style="font-style:normal;font-variant:normal;font-weight:bold;font-stretch:normal;font-size:2.82223px;font-family:'DejaVu Sans';-inkscape-font-specification:'DejaVu Sans Bold';text-align:center;text-anchor:middle;fill:#000000;stroke-width:0.264583"
       x="14.375389"
       y="75.2948"
       id="text44"><tspan
         sodipodi:role="line"
         id="tspan44"
         style="fill:#000000;stroke-width:0.264583"
         x="14.375389"
         y="75.2948">f</tspan></text>
    <text
       xml:space="preserve"
       style="font-style:normal;font-variant:normal;font-weight:bold;font-stretch:normal;font-size:2.82223px;font-family:'DejaVu Sans';-inkscape-font-specification:'DejaVu Sans Bold';text-align:center;text-anchor:middle;fill:#ffffff;stroke-width:0.264583"
       x="21.288839"
       y="45.899601"
       id="text45-2"><tspan
         sodipodi:role="line"
         id="tspan45-9"
         style="fill:#ffffff;stroke-width:0.264583"
         x="21.288839"
         y="45.899601">ON</tspan></text>
    <text
       xml:space="preserve"
       style="font-style:normal;font-variant:normal;font-weight:bold;font-stretch:normal;font-size:2.82223px;font-family:'DejaVu Sans';-inkscape-font-specification:'DejaVu Sans Bold';text-align:center;text-anchor:middle;fill:#ff0000;stroke-width:0.264583"
       x="38.680519"
       y="15.071539"
       id="text45-2-6"><tspan
         sodipodi:role="line"
         id="tspan45-9-5"
         style="fill:#ff0000;stroke-width:0.264583"
         x="38.680519"
         y="15.071539">Pocket Power Pack</tspan></text>
    <text
       xml:space="preserve"
       style="font-style:normal;font-variant:normal;font-weight:bold;font-stretch:normal;font-size:2.82223px;font-family:'DejaVu Sans';-inkscape-font-specification:'DejaVu Sans Bold';text-align:center;text-anchor:middle;fill:#ff0000;stroke-width:0.264583"
       x="46.351944"
       y="88.237015"
       id="text45-2-6-7-4"><tspan
         sodipodi:role="line"
         id="tspan45-9-5-0-7"
         style="fill:#c8c4b7;stroke-width:0.264583"
         x="46.351944"
         y="88.237015">peter@spyr.ch</tspan></text>
    <text
       xml:space="preserve"
       style="font-style:normal;font-variant:normal;font-weight:bold;font-stretch:normal;font-size:2.82223px;font-family:'DejaVu Sans';-inkscape-font-specification:'DejaVu Sans Bold';text-align:center;text-anchor:middle;fill:#d4aa00;stroke-width:0.264583"
       x="53.379154"
       y="74.022667"
       id="text67"><tspan
         sodipodi:role="line"
         id="tspan67"
         style="stroke-width:0.264583"
         x="53.379154"
         y="74.022667">D</tspan></text>
    <text
       xml:space="preserve"
       style="font-style:normal;font-variant:normal;font-weight:bold;font-stretch:normal;font-size:2.82223px;font-family:'DejaVu Sans';-inkscape-font-specification:'DejaVu Sans Bold';text-align:center;text-anchor:middle;fill:#d4aa00;stroke-width:0.264583"
       x="22.864643"
       y="73.999557"
       id="text68"><tspan
         sodipodi:role="line"
         id="tspan68"
         style="stroke-width:0.264583"
         x="22.864643"
         y="73.999557">A</tspan></text>
    <text
       xml:space="preserve"
       style="font-style:normal;font-variant:normal;font-weight:bold;font-stretch:normal;font-size:2.82223px;font-family:'DejaVu Sans';-inkscape-font-specification:'DejaVu Sans Bold';text-align:center;text-anchor:middle;fill:#d4aa00;stroke-width:0.264583"
       x="38.892288"
       y="37.076721"
       id="text68-6"><tspan
         sodipodi:role="line"
         id="tspan68-2"
         style="stroke-width:0.264583"
         x="38.892288"
         y="37.076721">A    B    C    D</tspan></text>
    <text
       xml:space="preserve"
       style="font-style:normal;font-variant:normal;font-weight:bold;font-stretch:normal;font-size:2.82223px;font-family:'DejaVu Sans';-inkscape-font-specification:'DejaVu Sans Bold';text-align:center;text-anchor:middle;fill:#d4aa00;stroke-width:0.264583"
       x="33.116253"
       y="74.026733"
       id="text69"><tspan
         sodipodi:role="line"
         id="tspan69"
         style="stroke-width:0.264583"
         x="33.116253"
         y="74.026733">B</tspan></text>
    <text
       xml:space="preserve"
       style="font-style:normal;font-variant:normal;font-weight:bold;font-stretch:normal;font-size:2.82223px;font-family:'DejaVu Sans';-inkscape-font-specification:'DejaVu Sans Bold';text-align:center;text-anchor:middle;fill:#d4aa00;stroke-width:0.264583"
       x="43.043999"
       y="74.000984"
       id="text70"><tspan
         sodipodi:role="line"
         id="tspan70"
         style="stroke-width:0.264583"
         x="43.043999"
         y="74.000984">C</tspan></text>
    <rect
       style="fill:#ffffff;stroke-width:0.264583"
       id="rect2"
       width="23"
       height="13"
       x="27.297794"
       y="20.928308" />
    <text
       xml:space="preserve"
       style="font-style:normal;font-variant:normal;font-weight:bold;font-stretch:normal;font-size:5.21936px;font-family:'DejaVu Sans';-inkscape-font-specification:'DejaVu Sans Bold';text-align:center;text-anchor:middle;fill:#ffffff;stroke-width:0.489313"
       x="22.805368"
       y="63.947014"
       id="text56"
       transform="scale(1.0032122,0.99679809)"><tspan
         sodipodi:role="line"
         id="tspan56"
         style="fill:#ffffff;stroke-width:0.489313"
         x="22.805368"
         y="63.947014">⬅</tspan></text>
    <text
       xml:space="preserve"
       style="font-style:normal;font-variant:normal;font-weight:bold;font-stretch:normal;font-size:5.21936px;font-family:'DejaVu Sans';-inkscape-font-specification:'DejaVu Sans Bold';text-align:center;text-anchor:middle;fill:#ffffff;stroke-width:0.489313"
       x="-53.647324"
       y="64.128609"
       id="text56-6"
       transform="scale(-1.0032122,0.99679809)"><tspan
         sodipodi:role="line"
         id="tspan56-1"
         style="fill:#ffffff;stroke-width:0.489313"
         x="-53.647324"
         y="64.128609">⬅</tspan></text>
    <text
       xml:space="preserve"
       style="font-style:normal;font-variant:normal;font-weight:bold;font-stretch:normal;font-size:5.21936px;font-family:'DejaVu Sans';-inkscape-font-specification:'DejaVu Sans Bold';text-align:center;text-anchor:middle;fill:#d4aa00;stroke-width:0.489313"
       x="61.870049"
       y="45.069134"
       id="text56-6-3"
       transform="matrix(0,1.0032122,0.99679809,0,0,0)"><tspan
         sodipodi:role="line"
         id="tspan56-1-5"
         style="fill:#d4aa00;stroke-width:0.489313"
         x="61.870049"
         y="45.069134">⬅</tspan></text>
    <text
       xml:space="preserve"
       style="font-style:normal;font-variant:normal;font-weight:bold;font-stretch:normal;font-size:5.21936px;font-family:'DejaVu Sans';-inkscape-font-specification:'DejaVu Sans Bold';text-align:center;text-anchor:middle;fill:#d4aa00;stroke-width:0.489313"
       x="-61.79715"
       y="-31.568644"
       id="text56-6-2"
       transform="matrix(0,-1.0032122,-0.99679809,0,0,0)"><tspan
         sodipodi:role="line"
         id="tspan56-1-7"
         style="fill:#d4aa00;stroke-width:0.489313"
         x="-61.79715"
         y="-31.568644">⬅</tspan></text>
    <g
       id="layer1-2"
       transform="translate(42.963052,36.102791)">
      <text
         xml:space="preserve"
         style="font-style:normal;font-variant:normal;font-weight:bold;font-stretch:normal;font-size:2.11667px;font-family:'DejaVu Sans';-inkscape-font-specification:'DejaVu Sans Bold';text-align:center;text-anchor:middle;fill:#d4aa00;stroke-width:0.264583"
         x="16.245031"
         y="16.370144"
         id="text77"><tspan
           sodipodi:role="line"
           id="tspan77"
           style="stroke-width:0.264583"
           x="16.245031"
           y="16.370144">RAIL</tspan></text>
    </g>
    <text
       xml:space="preserve"
       style="font-style:normal;font-variant:normal;font-weight:600;font-stretch:normal;font-size:3.175px;line-height:0%;font-family:PLSansDemiCond10;-inkscape-font-specification:'PLSansDemiCond10 Semi-Bold';letter-spacing:0px;word-spacing:0px;fill:#000000;fill-opacity:1;stroke:none;stroke-width:0.264583"
       x="179.36176"
       y="-76.710426"
       id="text4026"><tspan
         sodipodi:role="line"
         id="tspan4028"
         x="179.36176"
         y="-76.710426"
         style="font-size:10.5833px;line-height:1.25;stroke-width:0.264583"> </tspan></text>
    <text
       xml:space="preserve"
       style="font-style:normal;font-variant:normal;font-weight:normal;font-stretch:normal;font-size:3.175px;line-height:0%;font-family:'Arial Rounded MT Bold';-inkscape-font-specification:'Arial Rounded MT Bold';letter-spacing:0px;word-spacing:0px;fill:#000000;fill-opacity:1;stroke:none;stroke-width:0.264583"
       x="76.327339"
       y="-86.783333"
       id="text3845"><tspan
         sodipodi:role="line"
         id="tspan3847"
         x="76.327339"
         y="-86.783333"
         style="font-size:10.5833px;line-height:1.25;stroke-width:0.264583"> </tspan></text>
    <text
       xml:space="preserve"
       style="font-style:normal;font-variant:normal;font-weight:600;font-stretch:normal;font-size:3.175px;line-height:0%;font-family:PLSansDemiCond10;-inkscape-font-specification:'PLSansDemiCond10 Semi-Bold';letter-spacing:0px;word-spacing:0px;fill:#000000;fill-opacity:1;stroke:none;stroke-width:0.264583"
       x="225.54593"
       y="74.537407"
       id="text3024"><tspan
         sodipodi:role="line"
         x="225.54593"
         y="74.537407"
         id="tspan3028"
         style="font-size:10.5833px;line-height:1.25;stroke-width:0.264583"> </tspan></text>
    <text
       xml:space="preserve"
       style="font-style:italic;font-variant:normal;font-weight:bold;font-stretch:normal;font-size:3.175px;line-height:0%;font-family:PLSansDemiCond10;-inkscape-font-specification:'PLSansDemiCond10 Bold Italic';letter-spacing:0px;word-spacing:0px;fill:#000000;fill-opacity:1;stroke:none;stroke-width:0.264583"
       x="216.93985"
       y="64.808784"
       id="text3032"><tspan
         sodipodi:role="line"
         x="216.93985"
         y="64.808784"
         id="tspan3036"
         style="font-size:10.5833px;line-height:1.25;stroke-width:0.264583"> </tspan></text>
    <path
       sodipodi:type="arc"
       style="fill:#ffffff;fill-opacity:0;stroke:none;stroke-width:0.264583"
       id="path3052"
       sodipodi:cx="88.690575"
       sodipodi:cy="-3.9462972"
       sodipodi:rx="2.7127855"
       sodipodi:ry="8.8867111"
       d="m 91.40336,-3.9462972 a 2.7127855,8.8867111 0 0 1 -0.03148,1.34996 l -2.681302,-1.34996 z"
       sodipodi:start="0"
       sodipodi:end="0.1524981"
       sodipodi:arc-type="slice" />
    <ellipse
       style="fill:#ffffff;fill-opacity:0;stroke:none;stroke-width:0.264583"
       id="path3054"
       cx="14.790547"
       cy="-46.789604"
       rx="11.88013"
       ry="13.751017" />
    <g
       id="g3860"
       transform="matrix(0.05026639,0,0,0.05056168,1.2904848,11.757507)">
      <circle
         transform="matrix(0.60135147,0,0,0.60135147,137.82572,124.85575)"
         id="path3202-1-5"
         style="fill:none;stroke:#000000;stroke-width:1;stroke-miterlimit:4;stroke-dasharray:none;stroke-opacity:1"
         cx="343.45187"
         cy="308.88992"
         r="147.48227" />
      <circle
         transform="matrix(0.00137435,-0.86893636,-0.86893636,-0.00137435,612.30582,608.76279)"
         id="path3202-1"
         style="fill:none;stroke:#000000;stroke-width:1;stroke-miterlimit:4;stroke-dasharray:none;stroke-opacity:1"
         cx="343.45187"
         cy="308.88992"
         r="147.48227" />
      <circle
         transform="matrix(1.0170654,0,0,1.0170654,-5.3560784,-4.2611875)"
         id="path3202"
         style="fill:#004c25;fill-opacity:1;stroke:#000000;stroke-width:1;stroke-miterlimit:4;stroke-dasharray:none;stroke-opacity:1"
         cx="343.45187"
         cy="308.88992"
         r="147.48227" />
      <circle
         transform="matrix(0.96586913,0,0,0.96586913,11.722297,11.552818)"
         id="path3202-8"
         style="fill:#f1b80f;fill-opacity:1;stroke:#000000;stroke-width:1;stroke-miterlimit:4;stroke-dasharray:none;stroke-opacity:1"
         cx="343.45187"
         cy="308.88992"
         r="147.48227" />
      <path
         sodipodi:nodetypes="cccccccccccccccccccccccccccccccccccccccccccccccccccc"
         inkscape:connector-curvature="0"
         id="path3990"
         d="m 344.46429,248.61218 c -2.90465,3.67421 -2.89503,8.80839 -5.66061,12.59931 -1.73476,2.97564 -3.35236,6.06437 -5.76796,8.5614 -0.87963,2.12293 1.76096,2.53143 1.77274,4.52046 1.14716,2.06414 -1.02734,3.9338 -2.19275,5.47705 -2.65098,3.03861 -5.05755,6.32015 -7.97286,9.10964 -0.34,2.42872 2.72616,1.21606 4.24002,1.66289 1.8352,0.43036 0.57655,2.96469 -0.26152,4.00531 -2.63503,3.58763 -5.4253,7.10146 -8.97009,9.84818 -1.3494,1.48176 -3.47886,2.43652 -4.57235,3.97045 -0.89116,2.63458 1.17964,2.28417 3.1145,2.07075 1.68821,-0.10472 3.3161,-1.16824 4.38994,0.7853 0.19054,1.33241 -1.37808,3.18355 -2.45586,4.26783 -3.59223,3.71197 -7.01925,7.60932 -11.33836,10.50783 -1.05304,1.23572 -3.47888,1.61839 -3.78915,3.19477 -0.52291,2.36755 2.00169,2.03017 3.39623,1.25128 3.6562,-0.95869 6.94943,-3.33896 10.7121,-3.73973 1.79794,-0.83648 3.70192,1.20779 2.33914,2.72051 -2.36291,2.69516 -5.33276,4.91724 -8.03168,7.30709 -5.14983,3.93014 -10.91228,7.32955 -16.31533,10.98592 -0.88242,1.58431 0.72642,3.81883 2.62171,2.83959 6.6639,-1.55545 13.03916,-2.6969 19.71868,-4.36753 4.51863,-0.98347 11.08224,-1.58764 16.09482,-0.84437 2.21416,0.71531 -2.92802,7.31194 -1.32133,9.15625 2.23809,0.7857 20.14132,0.998 20.16066,0.4089 1.41481,-2.00392 -0.90775,-5.75822 -1.69643,-8.70982 -0.242,-2.6833 2.12433,-1.76596 3.91824,-1.6388 8.88225,0.95928 17.71049,2.36908 26.45902,4.17771 3.43424,0.47941 6.86195,1.10391 10.33703,0.67537 0.72,-2.16414 -1.48039,-2.6598 -2.90907,-3.60258 -4.87331,-2.81409 -9.65506,-5.76481 -14.04221,-9.30439 -3.34062,-2.31714 -6.30452,-5.23439 -9.04361,-8.16868 -1.75663,-2.06328 1.04161,-3.04337 2.29058,-1.25811 2.97737,2.41058 6.9067,3.16618 10.31145,4.83376 2.11219,-0.0212 4.40515,0.83 6.40307,0.25742 1.39971,-1.46401 -1.37803,-2.76882 -2.52793,-3.57342 -3.20336,-2.18683 -6.59293,-4.15313 -9.03912,-7.23667 -3.07119,-3.33264 -6.59213,-6.42662 -9.07836,-10.1807 -1.2393,-2.65126 1.32042,-1.75576 2.89352,-1.04969 2.53672,1.07964 4.94294,2.73436 7.82548,2.29003 2.5849,0.59415 1.12201,-2.48426 -0.36387,-3.02579 -5.82519,-4.84301 -11.00477,-10.37379 -16.38065,-15.69545 -0.64369,-2.14127 -0.3679,-3.27204 1.96429,-2.14286 1.8492,0.69771 3.54089,2.20268 5.625,1.69641 -0.0546,-1.86335 -0.71964,-3.44248 -2.14384,-4.66816 -3.06995,-3.70067 -6.37195,-7.26458 -9.29748,-11.05035 -0.35454,-1.29905 -2.26307,-4.15536 0.38922,-3.68787 2.71301,0.62775 1.5871,-2.09336 0.44487,-3.25842 -1.97957,-3.32956 -4.98954,-5.95044 -6.31219,-9.66124 -2.22471,-3.90278 -2.92881,-8.4516 -5.22345,-12.31682 -0.23808,1e-5 -0.47617,1e-5 -0.71425,2e-5 z"
         style="fill:#004c25;fill-opacity:1;stroke:#000000;stroke-width:1px;stroke-linecap:butt;stroke-linejoin:miter;stroke-opacity:1" />
      <ellipse
         id="path3046"
         style="fill:#ffffff;fill-opacity:0;stroke:none"
         cx="342.23969"
         cy="320.50665"
         rx="26.870058"
         ry="43.476665" />
      <g
         transform="rotate(89.595492,344.32993,310.2386)"
         inkscape:transform-center-x="-0.044428793"
         inkscape:transform-center-y="-101.86844"
         style="font-style:normal;font-variant:normal;font-weight:normal;font-stretch:normal;font-size:56px;line-height:125%;font-family:Egyptian;-inkscape-font-specification:Egyptian;text-align:center;letter-spacing:-2.07px;word-spacing:0px;text-anchor:middle;fill:#004c25;fill-opacity:1;stroke:none"
         id="text3011">
        <path
           d="m 291.7371,415.42627 c 1.0833,-2.94298 3.06287,-5.07864 5.93871,-6.40699 2.82798,-1.30622 5.71343,-1.4177 8.65637,-0.33443 l 4.5721,1.68293 5.68714,-15.45056 6.30635,2.32128 -13.5408,36.78705 -10.87846,-4.00421 c -2.94293,-1.08329 -5.06107,-3.05641 -6.35442,-5.91937 -1.34122,-2.84086 -1.47021,-5.73276 -0.38699,-8.6757 m 6.30635,2.32128 c -0.43843,1.19118 -0.37447,2.3684 0.19187,3.53167 0.51848,1.18536 1.3733,1.99728 2.56447,2.43577 l 4.57211,1.68293 3.2111,-8.72379 -4.5721,-1.68293 c -1.19118,-0.43847 -2.36195,-0.39204 -3.51233,0.13932 -1.18536,0.51843 -2.00373,1.39077 -2.45512,2.61703"
           style="font-size:56px;letter-spacing:-2.07px;fill:#004c25;fill-opacity:1"
           id="path3785" />
        <path
           d="m 292.14433,382.38011 5.57569,3.751 -21.88085,32.52489 -5.57569,-3.751 21.88085,-32.52489"
           style="font-size:56px;letter-spacing:-2.07px;fill:#004c25;fill-opacity:1"
           id="path3787" />
        <path
           d="m 269.8151,360.08491 4.42213,5.05996 -11.03981,23.10955 17.70985,-15.47745 4.42213,5.05996 -29.51643,25.79575 -4.42212,-5.05996 10.06998,-22.26198 -16.74003,14.62988 -4.42213,-5.05996 29.51643,-25.79575"
           style="font-size:56px;letter-spacing:-2.07px;fill:#004c25;fill-opacity:1"
           id="path3789" />
        <path
           d="m 258.31659,334.81089 7.57684,18.07627 -36.15253,15.15369 -7.57685,-18.07627 6.19758,-2.59778 4.97907,11.87869 7.23051,-3.03073 -3.09568,-7.38545 6.19757,-2.59778 3.09569,7.38545 10.32929,-4.32963 -4.97907,-11.87869 6.19758,-2.59777"
           style="font-size:56px;letter-spacing:-2.07px;fill:#004c25;fill-opacity:1"
           id="path3791" />
        <path
           d="m 258.3446,285.55569 -1.04051,7.26183 -17.3063,4.70489 -0.30977,2.16192 16.29755,2.33521 -0.95315,6.65206 -38.80369,-5.56001 1.64418,-11.47481 c 0.44484,-3.10427 1.93212,-5.58776 4.46186,-7.45047 2.49814,-1.9049 5.29935,-2.63496 8.40361,-2.1902 2.32825,0.33364 4.34206,1.28219 6.04146,2.84568 1.69943,1.56354 2.82587,3.44095 3.3793,5.63225 l 18.18546,-4.91835 m -28.55936,3.09249 c -1.25648,-0.18002 -2.39439,0.12837 -3.41374,0.92515 -1.05095,0.75459 -1.66646,1.76012 -1.84653,3.0166 l -0.69103,4.82274 9.20202,1.31852 0.69103,-4.82275 c 0.18006,-1.25648 -0.10985,-2.39174 -0.86973,-3.40579 -0.75453,-1.05096 -1.77854,-1.66912 -3.07202,-1.85447"
           style="font-size:56px;letter-spacing:-2.07px;fill:#004c25;fill-opacity:1"
           id="path3793" />
        <path
           d="m 263.70781,273.51559 -2.57842,6.20565 -36.19967,-15.04073 2.57841,-6.20566 36.19968,15.04074"
           style="font-size:56px;letter-spacing:-2.07px;fill:#004c25;fill-opacity:1"
           id="path3795" />
        <path
           d="m 248.34021,225.15717 25.75623,31.25913 -3.18814,4.39799 -37.71999,-14.75531 4.07557,-5.62218 21.93739,8.571 -14.96949,-18.18311 4.10843,-5.66752"
           style="font-size:56px;letter-spacing:-2.07px;fill:#004c25;fill-opacity:1"
           id="path3797" />
        <path
           d="m 299.27294,233.44579 -15.58115,11.89066 -23.78131,-31.16231 15.58115,-11.89065 4.0768,5.3421 -10.23904,7.81386 4.75626,6.23246 6.36601,-4.85818 4.0768,5.34211 -6.36601,4.85818 6.79466,8.90352 10.23904,-7.81386 4.07679,5.34211"
           style="font-size:56px;letter-spacing:-2.07px;fill:#004c25;fill-opacity:1"
           id="path3799" />
        <path
           d="m 326.49999,222.81246 -6.91361,2.45335 -12.20849,-13.13761 -2.05825,0.73038 5.50598,15.51604 -6.33308,2.24734 -13.10947,-36.94295 10.92456,-3.87666 c 2.95543,-1.04871 5.84563,-0.88589 8.67059,0.48846 2.84764,1.32677 4.79584,3.46785 5.84462,6.42325 0.78655,2.21661 0.88249,4.44058 0.28782,6.6719 -0.5947,2.23138 -1.73361,4.10125 -3.41673,5.60963 l 12.80606,13.81687 M 310.48976,198.9614 c -0.42451,-1.19621 -1.22638,-2.06048 -2.40561,-2.59279 -1.15654,-0.57992 -2.33294,-0.65764 -3.52918,-0.23318 l -4.59148,1.62932 3.10882,8.76076 4.59148,-1.62932 c 1.19624,-0.42447 2.06674,-1.20875 2.61152,-2.35283 0.57994,-1.15651 0.65142,-2.3505 0.21445,-3.58196"
           style="font-size:56px;letter-spacing:-2.07px;fill:#004c25;fill-opacity:1"
           id="path3801" />
      </g>
      <g
         transform="rotate(-0.79399652,350.50239,427.24792)"
         inkscape:transform-center-x="-0.041211823"
         inkscape:transform-center-y="97.70587"
         style="font-style:normal;font-variant:normal;font-weight:normal;font-stretch:normal;font-size:56px;line-height:125%;font-family:Egyptian;-inkscape-font-specification:Egyptian;text-align:center;letter-spacing:6.8px;word-spacing:0px;text-anchor:middle;fill:#004c25;fill-opacity:1;stroke:none"
         id="text3017">
        <path
           d="m 236.77477,357.17623 c -3.08979,1.00137 -6.09245,0.75793 -9.00798,-0.73032 -2.88004,-1.4998 -4.82075,-3.79458 -5.82214,-6.88434 -1.00139,-3.08979 -0.76371,-6.1102 0.71306,-9.06125 1.33175,-2.55086 3.21761,-4.30018 5.65761,-5.24795 l 3.27984,5.94226 c -0.24862,0.0806 -0.44395,0.14388 -0.586,0.18992 -1.13648,0.36832 -1.96974,1.18782 -2.4998,2.45848 -0.48305,1.29465 -0.5404,2.51022 -0.17207,3.6467 0.42587,1.31403 1.25014,2.2831 2.4728,2.90723 1.26965,0.64811 2.56151,0.75923 3.87557,0.33336 2.16638,-0.70214 3.32995,-2.19774 3.49072,-4.4868 l 0.59471,-7.61007 c 0.14725,-2.08848 0.88908,-3.97719 2.22547,-5.66616 1.33635,-1.68895 3.03447,-2.86723 5.09434,-3.53483 2.69909,-0.87477 5.39461,-0.61028 8.08657,0.79348 2.87999,1.49979 4.8207,3.79456 5.82214,6.88434 0.71359,2.2019 0.76592,4.42191 0.157,6.66003 -0.57349,2.22659 -1.66948,4.11236 -3.28796,5.6573 l -4.65207,-4.90884 c 1.55897,-1.48641 2.00467,-3.25954 1.33711,-5.31938 -0.43742,-1.34956 -1.27319,-2.35415 -2.50732,-3.01378 -1.03458,-0.5281 -1.99579,-0.64827 -2.88362,-0.36051 -1.66922,0.54098 -2.56397,1.65511 -2.68426,3.34241 l -0.54144,7.5928 c -0.17327,2.3716 -0.99385,4.50169 -2.46173,6.39028 -1.45642,1.92407 -3.3566,3.26595 -5.70055,4.02564"
           style="fill:#004c25"
           id="path3804" />
        <path
           d="m 245.96366,392.80988 -3.85314,-5.50561 14.31459,-10.01815 -5.58704,-7.98314 -14.31459,10.01815 -3.85314,-5.50561 32.11607,-22.47662 3.85313,5.50562 -12.24998,8.57322 5.58704,7.98313 12.24999,-8.57322 3.85313,5.50561 -32.11606,22.47662"
           style="fill:#004c25"
           id="path3806" />
        <path
           d="m 288.93341,403.87491 c -3.30767,4.33235 -6.6006,7.38424 -9.87881,9.1557 -4.56861,2.4772 -8.78169,2.24323 -12.63925,-0.70192 -2.10683,-1.60852 -3.51535,-3.67026 -4.22556,-6.18523 -0.68756,-2.54465 -0.56562,-5.01143 0.36582,-7.40034 1.46591,-3.7657 3.43357,-7.26577 5.90299,-10.50021 8.08783,-10.59347 15.54423,-13.28488 22.3692,-8.07424 6.82489,5.21069 6.19343,13.11276 -1.89439,23.70624 m -5.34125,-4.07791 c 5.34656,-7.00297 6.38781,-11.75049 3.12374,-14.24256 -3.26413,-2.49204 -7.56948,-0.23658 -12.91605,6.76639 -2.08428,2.72998 -3.72615,5.68028 -4.92561,8.85092 -0.41963,1.04177 -0.47724,2.10158 -0.17285,3.17943 0.30436,1.07785 0.90165,1.9566 1.79188,2.63625 3.20473,2.44674 7.57102,0.0499 13.09889,-7.19043"
           style="fill:#004c25"
           id="path3808" />
        <path
           d="m 312.45057,434.68118 -6.89645,-2.50118 -1.07253,-17.90233 -2.05314,-0.74463 -5.61334,15.47752 -6.31735,-2.29115 13.36508,-36.85125 10.89744,3.95225 c 2.94807,1.06923 5.07561,3.03222 6.38261,5.88897 1.35476,2.83443 1.49755,5.72568 0.42838,8.67376 -0.80194,2.21109 -2.14166,3.98883 -4.01916,5.33324 -1.87757,1.34442 -3.94541,2.06383 -6.20354,2.15824 l 1.102,18.80656 m 2.80334,-28.5892 c 0.43275,-1.19325 0.36317,-2.37016 -0.20872,-3.53071 -0.52412,-1.18287 -1.38281,-1.99071 -2.57606,-2.42351 l -4.58009,-1.66109 -3.16943,8.73901 4.58008,1.66109 c 1.19326,0.43279 2.3638,0.38077 3.51162,-0.15608 1.18287,-0.52408 1.99707,-1.40031 2.4426,-2.62871"
           style="fill:#004c25"
           id="path3810" />
        <path
           d="m 352.2407,405.537 -9.78521,-0.53815 -1.81743,33.04606 -6.70986,-0.36903 1.81743,-33.04606 -9.78521,-0.53815 0.33519,-6.09479 26.28029,1.44533 -0.3352,6.09479"
           style="fill:#004c25"
           id="path3812" />
        <path
           d="m 409.7799,420.72505 -17.69427,8.43048 -16.86095,-35.38854 6.06661,-2.89044 13.87415,29.1197 11.62766,-5.54002 2.9868,6.26882"
           style="fill:#004c25"
           id="path3814" />
        <path
           d="m 426.1376,408.64012 -5.28292,4.15321 -24.22705,-30.81704 5.28292,-4.15321 24.22705,30.81704"
           style="fill:#004c25"
           id="path3816" />
        <path
           d="m 453.18655,378.63753 -4.09692,5.3267 -24.82294,-6.30478 18.64343,14.33921 -4.09692,5.32669 -31.07238,-23.89868 4.09691,-5.32669 23.802,5.51953 -17.62248,-13.55396 4.09692,-5.3267 31.07238,23.89868"
           style="fill:#004c25"
           id="path3818" />
        <path
           d="m 468.06772,345.26908 -6.96998,18.31883 -36.63766,-13.93996 6.96998,-18.31883 6.28074,2.38971 -4.58027,12.03809 7.32753,2.78799 2.84774,-7.48455 6.28074,2.3897 -2.84774,7.48455 10.4679,3.98285 4.58027,-12.03809 6.28075,2.38971"
           style="fill:#004c25"
           id="path3820" />
      </g>
      <circle
         transform="matrix(0.00315897,0,0,0.00315897,343.27603,309.27786)"
         id="path3202-1-48"
         style="fill:#000000;fill-opacity:1;stroke:#000000;stroke-width:1;stroke-miterlimit:4;stroke-dasharray:none;stroke-opacity:1"
         cx="343.45187"
         cy="308.88992"
         r="147.48227" />
    </g>
    <g
       transform="matrix(0.1243982,0,0,0.11981754,-2.5569628,76.187377)"
       id="g287"
       inkscape:export-filename="/mnt/hgfs/Bov/Documents/Work/2007/cc/identity/srr buttons/big/by-sa.png"
       inkscape:export-xdpi="300.23013"
       inkscape:export-ydpi="300.23013">
      <path
         id="path3817_2_"
         nodetypes="ccccccc"
         d="m 182.23532,75.39014 114.06396,0.20312 c 1.59375,0 3.01758,-0.23682 3.01758,3.18018 l -0.13965,37.56689 H 179.3569 V 78.63379 c 0,-1.68457 0.16309,-3.24365 2.87842,-3.24365 z"
         style="fill:#aab2ab" />
      <g
         id="g5908_2_"
         transform="matrix(0.872921,0,0,0.872921,50.12536,143.2144)">
        <path
           id="path5906_2_"
           cx="296.35416"
           ry="22.939548"
           cy="264.3577"
           type="arc"
           rx="22.939548"
           d="m 187.20944,-55.6792 c 0.006,8.68024 -7.02786,15.72095 -15.7081,15.72708 -8.68021,0.005 -15.72205,-7.02786 -15.72708,-15.70804 0,-0.0067 0,-0.01233 0,-0.01904 -0.005,-8.68134 7.02783,-15.72205 15.70807,-15.72711 8.68134,-0.0056 15.72208,7.02789 15.72711,15.70807 0,0.0056 0,0.01233 0,0.01904 z"
           style="fill:#ffffff" />
        <g
           id="g5706_2_"
           transform="translate(-289.6157,99.0653)">
          <path
             id="path5708_2_"
             d="m 473.88455,-167.54724 c 3.48541,3.48596 5.22839,7.75391 5.22839,12.80273 0,5.04938 -1.7128,9.27148 -5.13834,12.66736 -3.63531,3.5766 -7.93179,5.36432 -12.88947,5.36432 -4.89777,0 -9.11987,-1.77261 -12.6651,-5.31955 -3.54584,-3.54581 -5.31845,-7.78299 -5.31845,-12.71213 0,-4.92859 1.77261,-9.19598 5.31845,-12.80273 3.4552,-3.48651 7.67725,-5.22894 12.6651,-5.22894 5.04829,0 9.31401,1.74243 12.79942,5.22894 z m -23.11798,2.34485 c -2.94675,2.97638 -4.41956,6.46289 -4.41956,10.46234 0,3.99835 1.45828,7.4552 4.37424,10.37067 2.91653,2.9165 6.38849,4.37476 10.41705,4.37476 4.02853,0 7.53018,-1.47281 10.50656,-4.41901 2.8259,-2.73584 4.23941,-6.17706 4.23941,-10.32642 0,-4.11804 -1.43646,-7.61292 -4.30768,-10.48474 -2.87064,-2.87067 -6.34988,-4.30652 -10.43829,-4.30652 -4.08837,0 -7.54638,1.44318 -10.37173,4.32892 z m 7.75449,8.70312 c -0.45032,-0.98163 -1.12433,-1.47223 -2.02325,-1.47223 -1.58914,0 -2.38342,1.06952 -2.38342,3.2085 0,2.13959 0.79428,3.20911 2.38342,3.20911 1.04938,0 1.79895,-0.5213 2.24866,-1.56512 l 2.20276,1.17303 c -1.04993,1.86548 -2.62506,2.79901 -4.72549,2.79901 -1.6199,0 -2.91763,-0.4967 -3.89206,-1.48956 -0.97607,-0.99341 -1.46274,-2.36273 -1.46274,-4.10797 0,-1.71558 0.50229,-3.07709 1.50748,-4.08563 1.00519,-1.00793 2.25705,-1.51251 3.75781,-1.51251 2.22012,0 3.80984,0.87488 4.77081,2.62286 z m 10.36334,0 c -0.45087,-0.98163 -1.11148,-1.47223 -1.98239,-1.47223 -1.62106,0 -2.43213,1.06952 -2.43213,3.2085 0,2.13959 0.81107,3.20911 2.43213,3.20911 1.05103,0 1.78717,-0.5213 2.20724,-1.56512 l 2.25201,1.17303 c -1.04825,1.86548 -2.62119,2.79901 -4.71768,2.79901 -1.61771,0 -2.91263,-0.4967 -3.88647,-1.48956 -0.97217,-0.99341 -1.45938,-2.36273 -1.45938,-4.10797 0,-1.71558 0.49448,-3.07709 1.48288,-4.08563 0.98782,-1.00793 2.24527,-1.51251 3.77347,-1.51251 2.21619,0 3.80368,0.87488 4.76132,2.62286 z" />
        </g>
      </g>
      <path
         d="M 297.29639,74.91064 H 181.06688 c -1.24658,0 -2.26074,1.01465 -2.26074,2.26123 v 39.49561 c 0,0.28174 0.22852,0.51074 0.51025,0.51074 h 119.73 c 0.28174,0 0.51074,-0.229 0.51074,-0.51074 v -39.4956 c 0,-1.24659 -1.01416,-2.26124 -2.26074,-2.26124 z m -116.22951,1.02149 h 116.22951 c 0.68359,0 1.23926,0.55615 1.23926,1.23975 0,0 0,15.91943 0,27.41846 H 215.4619 c -3.04492,5.50537 -8.91113,9.24365 -15.64355,9.24365 -6.73535,0 -12.6001,-3.73486 -15.64355,-9.24365 h -4.34814 c 0,-11.49902 0,-27.41846 0,-27.41846 -2e-5,-0.6836 0.55663,-1.23975 1.24022,-1.23975 z"
         id="path294" />
      <g
         enable-background="new    "
         id="g296">
        <path
           d="m 265.60986,112.8833 c 0.0801,0.15576 0.1875,0.28174 0.32129,0.37842 0.13379,0.0962 0.29004,0.16797 0.46973,0.21436 0.18066,0.0469 0.36719,0.0703 0.55957,0.0703 0.12988,0 0.26953,-0.0107 0.41895,-0.0327 0.14844,-0.0215 0.28809,-0.064 0.41895,-0.12598 0.12988,-0.062 0.23926,-0.14795 0.3252,-0.25684 0.0879,-0.10889 0.13086,-0.24707 0.13086,-0.41553 0,-0.18018 -0.0576,-0.32617 -0.17285,-0.43848 -0.11426,-0.1123 -0.26562,-0.20508 -0.45215,-0.28027 -0.18555,-0.0742 -0.39746,-0.13965 -0.63281,-0.1958 -0.23633,-0.0562 -0.47559,-0.11816 -0.71777,-0.18701 -0.24902,-0.062 -0.49121,-0.13818 -0.72754,-0.22852 -0.23535,-0.0898 -0.44727,-0.20703 -0.63379,-0.3501 -0.18652,-0.14307 -0.33691,-0.32178 -0.45215,-0.53662 -0.11426,-0.21484 -0.17188,-0.47461 -0.17188,-0.7793 0,-0.34277 0.0732,-0.63965 0.21875,-0.8916 0.14648,-0.25195 0.33789,-0.46191 0.57422,-0.63037 0.23535,-0.16797 0.50293,-0.29248 0.80176,-0.37354 0.29785,-0.0806 0.59668,-0.12109 0.89453,-0.12109 0.34863,0 0.68262,0.0391 1.00293,0.11719 0.31934,0.0776 0.60449,0.2041 0.85254,0.37842 0.24902,0.17432 0.44629,0.39697 0.59277,0.66797 0.14551,0.271 0.21875,0.59961 0.21875,0.98535 h -1.42188 c -0.0127,-0.19922 -0.0547,-0.36426 -0.125,-0.49463 -0.0713,-0.13086 -0.16602,-0.2334 -0.2832,-0.30859 -0.11816,-0.0742 -0.25293,-0.12744 -0.4043,-0.1582 -0.15234,-0.0312 -0.31738,-0.0469 -0.49707,-0.0469 -0.11719,0 -0.23535,0.0127 -0.35254,0.0371 -0.11816,0.0254 -0.22461,0.0688 -0.32031,0.13086 -0.0967,0.0625 -0.17578,0.14014 -0.2373,0.2334 -0.0615,0.0937 -0.0928,0.21191 -0.0928,0.35498 0,0.13086 0.0244,0.23682 0.0742,0.31738 0.0498,0.0811 0.14844,0.15576 0.29395,0.22412 0.14551,0.0684 0.34766,0.13721 0.60547,0.20557 0.25781,0.0684 0.59473,0.15576 1.01172,0.26123 0.12402,0.0249 0.2959,0.0703 0.5166,0.13574 0.2207,0.0654 0.43945,0.16943 0.65723,0.3125 0.21777,0.14355 0.40527,0.33496 0.56445,0.57422 0.1582,0.23975 0.2373,0.54639 0.2373,0.91992 0,0.30518 -0.0596,0.58838 -0.17773,0.84961 -0.11816,0.26172 -0.29395,0.4873 -0.52734,0.67676 -0.2334,0.19043 -0.52246,0.33789 -0.86719,0.44385 -0.3457,0.10596 -0.74609,0.15869 -1.19922,0.15869 -0.36719,0 -0.72363,-0.0454 -1.06934,-0.13574 -0.34473,-0.0903 -0.65039,-0.23242 -0.91504,-0.42578 -0.26367,-0.19336 -0.47363,-0.43994 -0.62988,-0.73877 -0.15527,-0.29932 -0.22949,-0.65381 -0.22363,-1.06494 h 1.42188 c -3e-5,0.22412 0.04,0.41406 0.12106,0.56933 z"
           id="path298"
           style="fill:#ffffff" />
        <path
           d="m 273.8667,107.8667 2.49316,6.66406 h -1.52246 l -0.50391,-1.48438 h -2.49316 l -0.52246,1.48438 h -1.47461 l 2.52051,-6.66406 z m 0.084,4.08594 -0.83984,-2.44336 h -0.0186 l -0.86914,2.44336 z"
           id="path300"
           style="fill:#ffffff" />
      </g>
      <g
         enable-background="new    "
         id="g302">
        <path
           d="m 239.17821,107.8667 c 0.31738,0 0.60742,0.0283 0.86914,0.084 0.26172,0.0561 0.48633,0.14795 0.67383,0.27539 0.18652,0.12744 0.33203,0.29688 0.43457,0.5083 0.10254,0.21142 0.1543,0.47266 0.1543,0.78369 0,0.33594 -0.0762,0.61523 -0.22949,0.83936 -0.15234,0.22412 -0.37891,0.40723 -0.67773,0.55029 0.41211,0.11816 0.71973,0.3252 0.92285,0.62109 0.20312,0.29589 0.30469,0.65234 0.30469,1.06934 0,0.33594 -0.0654,0.62695 -0.19629,0.87305 -0.13086,0.24561 -0.30762,0.44629 -0.52832,0.60205 -0.22168,0.15576 -0.47461,0.271 -0.75781,0.34521 -0.28418,0.0752 -0.5752,0.1123 -0.875,0.1123 h -3.23633 v -6.66406 h 3.14159 z m -0.1875,2.69531 c 0.26172,0 0.47656,-0.062 0.64551,-0.18604 0.16797,-0.12451 0.25195,-0.32568 0.25195,-0.60498 0,-0.15527 -0.0283,-0.28271 -0.084,-0.38184 -0.0566,-0.0996 -0.13086,-0.17676 -0.22461,-0.23291 -0.0937,-0.0557 -0.20117,-0.0947 -0.32227,-0.11621 -0.12207,-0.022 -0.24805,-0.0327 -0.37891,-0.0327 h -1.37305 v 1.55469 z m 0.0859,2.82813 c 0.14355,0 0.28027,-0.0137 0.41113,-0.042 0.13086,-0.0278 0.24707,-0.0747 0.34668,-0.13965 0.0996,-0.0654 0.17871,-0.1543 0.23828,-0.26611 0.0596,-0.11181 0.0889,-0.25488 0.0889,-0.4292 0,-0.3418 -0.0967,-0.58594 -0.29004,-0.73193 -0.19336,-0.14599 -0.44922,-0.21924 -0.7666,-0.21924 h -1.59961 v 1.82812 z"
           id="path304"
           style="fill:#ffffff" />
        <path
           d="m 241.88914,107.8667 h 1.64355 l 1.56055,2.63184 1.55078,-2.63184 h 1.63379 l -2.47363,4.10645 v 2.55762 h -1.46875 v -2.59473 z"
           id="path306"
           style="fill:#ffffff" />
      </g>
      <g
         id="g6316_1_"
         transform="matrix(0.624995,0,0,0.624995,391.2294,176.9332)">
        <path
           id="path6318_1_"
           cx="475.97119"
           ry="29.209877"
           cy="252.08646"
           type="arc"
           rx="29.209877"
           d="m -175.0083,-139.1153 c 0.006,9.4118 -7.61725,17.04779 -17.02982,17.05481 -9.41101,0.007 -17.047,-7.61725 -17.05481,-17.02979 0,-0.008 0,-0.0172 0,-0.025 -0.006,-9.41254 7.6188,-17.047 17.02982,-17.05481 9.41257,-0.007 17.04855,7.61804 17.05481,17.02985 0,0.009 0,0.0164 0,0.025 z"
           style="fill:#ffffff" />
        <g
           id="g6320_1_"
           transform="translate(-23.9521,-89.72962)">
          <path
             id="path6322_1_"
             d="m -168.2204,-68.05536 c -5.17194,0 -9.54852,1.80469 -13.13135,5.41333 -3.67661,3.73444 -5.51413,8.1532 -5.51413,13.25635 0,5.10315 1.83752,9.49152 5.51413,13.1626 3.67502,3.67194 8.05316,5.50787 13.13135,5.50787 5.14066,0 9.59537,-1.85156 13.36728,-5.55475 3.55005,-3.51562 5.3266,-7.88831 5.3266,-13.11572 0,-5.22662 -1.8078,-9.64697 -5.42191,-13.25635 -3.61407,-3.60864 -8.03756,-5.41333 -13.27197,-5.41333 z m 0.0469,3.36017 c 4.23752,0 7.836,1.49298 10.79697,4.48053 2.98907,2.9563 4.48441,6.56567 4.48441,10.82898 0,4.29382 -1.46252,7.85712 -4.39224,10.68915 -3.08438,3.04926 -6.71411,4.57349 -10.88913,4.57349 -4.17505,0 -7.7735,-1.5094 -10.79541,-4.52661 -3.02188,-3.01953 -4.53284,-6.59692 -4.53284,-10.73602 0,-4.13831 1.52658,-7.74847 4.57971,-10.82898 2.92815,-2.98756 6.51098,-4.48054 10.74853,-4.48054 z" />
          <path
             id="path6324_1_"
             d="m -176.49548,-52.02087 c 0.74377,-4.69769 4.05161,-7.20862 8.1954,-7.20862 5.96097,0 9.59225,4.32501 9.59225,10.09229 0,5.62738 -3.86411,9.99927 -9.686,9.99927 -4.00473,0 -7.58914,-2.46484 -8.24228,-7.30084 h 4.70319 c 0.14062,2.51099 1.77032,3.39459 4.09845,3.39459 2.65317,0 4.37817,-2.4649 4.37817,-6.23291 0,-3.95233 -1.49063,-6.04535 -4.28598,-6.04535 -2.04846,0 -3.8172,0.74457 -4.19064,3.30157 l 1.36874,-0.007 -3.70316,3.7016 -3.7016,-3.7016 z" />
        </g>
      </g>
      <g
         id="g313">
        <circle
           cx="0"
           cy="0"
           r="0"
           id="circle315"
           style="fill:#ffffff" />
        <g
           id="g317">
          <path
             d="m 245.68994,87.09766 c 0,-0.4165 -0.33789,-0.75342 -0.75391,-0.75342 h -4.77246 c -0.41602,0 -0.75391,0.33691 -0.75391,0.75342 v 4.77295 h 1.33105 v 5.65234 h 3.61719 v -5.65234 h 1.33203 v -4.77295 z"
             id="path319" />
          <circle
             cx="0"
             cy="0"
             r="0"
             id="circle321" />
        </g>
        <path
           clip-rule="evenodd"
           d="m 242.53467,78.31836 c -3.23145,0 -5.96826,1.12744 -8.20752,3.38379 -2.29785,2.33301 -3.44629,5.09521 -3.44629,8.28418 0,3.18897 1.14844,5.93213 3.44629,8.22705 2.29785,2.29443 5.03418,3.44189 8.20752,3.44189 3.21289,0 5.99805,-1.15674 8.35352,-3.47168 2.2207,-2.19678 3.33008,-4.92969 3.33008,-8.19727 0,-3.26758 -1.12891,-6.02881 -3.3877,-8.28418 -2.25879,-2.25634 -5.02442,-3.38378 -8.2959,-3.38378 z m 0.0293,2.09961 c 2.64844,0 4.89746,0.93359 6.74707,2.80078 1.87012,1.84717 2.80469,4.10352 2.80469,6.76758 0,2.68359 -0.91504,4.91113 -2.74609,6.68066 -1.92773,1.90576 -4.19629,2.8584 -6.80566,2.8584 -2.60937,0 -4.8584,-0.94287 -6.74658,-2.82959 -1.88965,-1.88623 -2.8335,-4.12256 -2.8335,-6.70947 0,-2.58643 0.9541,-4.84229 2.8623,-6.76758 1.83057,-1.86719 4.07031,-2.80078 6.71777,-2.80078 z"
           id="path323"
           style="fill-rule:evenodd" />
      </g>
    </g>
  </g>
</svg>
