<?xml version="1.0" encoding="UTF-8" standalone="no"?>
<!-- Created with Inkscape (http://www.inkscape.org/) -->

<svg
   width="320"
   height="360"
   id="svg3048"
   version="1.1"
   inkscape:version="1.4.1-rc (06eac75fbf, 2025-03-29)"
   sodipodi:docname="pine-river-short-line-ry-egypt-path.svg"
   xmlns:inkscape="http://www.inkscape.org/namespaces/inkscape"
   xmlns:sodipodi="http://sodipodi.sourceforge.net/DTD/sodipodi-0.dtd"
   xmlns="http://www.w3.org/2000/svg"
   xmlns:svg="http://www.w3.org/2000/svg"
   xmlns:rdf="http://www.w3.org/1999/02/22-rdf-syntax-ns#"
   xmlns:cc="http://creativecommons.org/ns#"
   xmlns:dc="http://purl.org/dc/elements/1.1/">
  <defs
     id="defs3050" />
  <sodipodi:namedview
     id="base"
     pagecolor="#ffffff"
     bordercolor="#666666"
     borderopacity="1.0"
     inkscape:pageopacity="0.0"
     inkscape:pageshadow="2"
     inkscape:zoom="2.0000002"
     inkscape:cx="114.99999"
     inkscape:cy="214.24998"
     inkscape:document-units="px"
     inkscape:current-layer="layer1"
     showgrid="true"
     inkscape:window-width="1870"
     inkscape:window-height="1011"
     inkscape:window-x="0"
     inkscape:window-y="0"
     inkscape:window-maximized="1"
     showguides="true"
     inkscape:snap-grids="true"
     inkscape:snap-to-guides="false"
     inkscape:guide-bbox="true"
     inkscape:showpageshadow="2"
     inkscape:pagecheckerboard="0"
     inkscape:deskcolor="#d1d1d1">
    <inkscape:grid
       type="xygrid"
       id="grid3036"
       empspacing="5"
       visible="true"
       enabled="true"
       snapvisiblegridlinesonly="true"
       originx="0"
       originy="0"
       spacingy="1"
       spacingx="1"
       units="px" />
  </sodipodi:namedview>
  <metadata
     id="metadata3053">
    <rdf:RDF>
      <cc:Work
         rdf:about="">
        <dc:format>image/svg+xml</dc:format>
        <dc:type
           rdf:resource="http://purl.org/dc/dcmitype/StillImage" />
        <dc:title />
      </cc:Work>
    </rdf:RDF>
  </metadata>
  <g
     inkscape:label="Ebene 1"
     inkscape:groupmode="layer"
     id="layer1"
     transform="translate(0,-692.36218)">
    <text
       xml:space="preserve"
       style="font-style:normal;font-variant:normal;font-weight:600;font-stretch:normal;line-height:0%;font-family:PLSansDemiCond10;-inkscape-font-specification:'PLSansDemiCond10 Semi-Bold';letter-spacing:0px;word-spacing:0px;fill:#000000;fill-opacity:1;stroke:none"
       x="439.92142"
       y="163.93301"
       id="text4026"><tspan
         sodipodi:role="line"
         id="tspan4028"
         x="439.92142"
         y="163.93301"
         style="font-size:40px;line-height:1.25"> </tspan></text>
    <text
       xml:space="preserve"
       style="font-style:normal;font-variant:normal;font-weight:normal;font-stretch:normal;line-height:0%;font-family:'Arial Rounded MT Bold';-inkscape-font-specification:'Arial Rounded MT Bold';letter-spacing:0px;word-spacing:0px;fill:#000000;fill-opacity:1;stroke:none"
       x="50.5"
       y="125.86219"
       id="text3845"><tspan
         sodipodi:role="line"
         id="tspan3847"
         x="50.5"
         y="125.86219"
         style="font-size:40px;line-height:1.25"> </tspan></text>
    <text
       xml:space="preserve"
       style="font-style:normal;font-variant:normal;font-weight:600;font-stretch:normal;line-height:0%;font-family:PLSansDemiCond10;-inkscape-font-specification:'PLSansDemiCond10 Semi-Bold';letter-spacing:0px;word-spacing:0px;fill:#000000;fill-opacity:1;stroke:none"
       x="614.47577"
       y="735.57837"
       id="text3024"><tspan
         sodipodi:role="line"
         x="614.47577"
         y="735.57837"
         id="tspan3028"
         style="font-size:40px;line-height:1.25"> </tspan></text>
    <text
       xml:space="preserve"
       style="font-style:italic;font-variant:normal;font-weight:bold;font-stretch:normal;line-height:0%;font-family:PLSansDemiCond10;-inkscape-font-specification:'PLSansDemiCond10 Bold Italic';letter-spacing:0px;word-spacing:0px;fill:#000000;fill-opacity:1;stroke:none"
       x="581.94885"
       y="698.80878"
       id="text3032"><tspan
         sodipodi:role="line"
         x="581.94885"
         y="698.80878"
         id="tspan3036"
         style="font-size:40px;line-height:1.25"> </tspan></text>
    <path
       sodipodi:type="arc"
       style="fill:#ffffff;fill-opacity:0;stroke:none"
       id="path3052"
       sodipodi:cx="97.22718"
       sodipodi:cy="438.94705"
       sodipodi:rx="10.253048"
       sodipodi:ry="33.58757"
       d="m 107.48023,438.94705 c 0,1.70818 -0.0398,3.41386 -0.11899,5.10221 l -10.13406,-5.10221 z"
       sodipodi:start="0"
       sodipodi:end="0.1524981" />
    <path
       sodipodi:type="arc"
       style="fill:#ffffff;fill-opacity:0;stroke:none"
       id="path3054"
       sodipodi:cx="-182.08"
       sodipodi:cy="277.01959"
       sodipodi:rx="44.901279"
       sodipodi:ry="51.972347"
       d="m -137.17872,277.01959 c 0,28.70354 -20.10299,51.97235 -44.90128,51.97235 -24.79829,0 -44.90128,-23.26881 -44.90128,-51.97235 0,-28.70353 20.10299,-51.97234 44.90128,-51.97234 24.79829,0 44.90128,23.26881 44.90128,51.97234 z" />
    <g
       id="g3860"
       transform="translate(-184.82688,542.10855)">
      <path
         transform="matrix(0.60135147,0,0,0.60135147,137.82572,124.85575)"
         d="m 490.93414,308.88992 c 0,81.45221 -66.03006,147.48227 -147.48227,147.48227 -81.4522,0 -147.48227,-66.03006 -147.48227,-147.48227 0,-81.45221 66.03007,-147.48227 147.48227,-147.48227 81.45221,0 147.48227,66.03006 147.48227,147.48227 z"
         sodipodi:ry="147.48227"
         sodipodi:rx="147.48227"
         sodipodi:cy="308.88992"
         sodipodi:cx="343.45187"
         id="path3202-1-5"
         style="fill:none;stroke:#000000;stroke-width:1;stroke-miterlimit:4;stroke-opacity:1;stroke-dasharray:none"
         sodipodi:type="arc" />
      <path
         transform="matrix(0.00137435,-0.86893636,-0.86893636,-0.00137435,612.30582,608.76279)"
         d="m 490.93414,308.88992 c 0,81.45221 -66.03006,147.48227 -147.48227,147.48227 -81.4522,0 -147.48227,-66.03006 -147.48227,-147.48227 0,-81.45221 66.03007,-147.48227 147.48227,-147.48227 81.45221,0 147.48227,66.03006 147.48227,147.48227 z"
         sodipodi:ry="147.48227"
         sodipodi:rx="147.48227"
         sodipodi:cy="308.88992"
         sodipodi:cx="343.45187"
         id="path3202-1"
         style="fill:none;stroke:#000000;stroke-width:1;stroke-miterlimit:4;stroke-opacity:1;stroke-dasharray:none"
         sodipodi:type="arc" />
      <path
         transform="matrix(1.0170654,0,0,1.0170654,-5.3560784,-4.2611875)"
         d="m 490.93414,308.88992 c 0,81.45221 -66.03006,147.48227 -147.48227,147.48227 -81.4522,0 -147.48227,-66.03006 -147.48227,-147.48227 0,-81.45221 66.03007,-147.48227 147.48227,-147.48227 81.45221,0 147.48227,66.03006 147.48227,147.48227 z"
         sodipodi:ry="147.48227"
         sodipodi:rx="147.48227"
         sodipodi:cy="308.88992"
         sodipodi:cx="343.45187"
         id="path3202"
         style="fill:#004c25;fill-opacity:1;stroke:#000000;stroke-width:1;stroke-miterlimit:4;stroke-opacity:1;stroke-dasharray:none"
         sodipodi:type="arc" />
      <path
         transform="matrix(0.96586913,0,0,0.96586913,11.722297,11.552818)"
         d="m 490.93414,308.88992 c 0,81.45221 -66.03006,147.48227 -147.48227,147.48227 -81.4522,0 -147.48227,-66.03006 -147.48227,-147.48227 0,-81.45221 66.03007,-147.48227 147.48227,-147.48227 81.45221,0 147.48227,66.03006 147.48227,147.48227 z"
         sodipodi:ry="147.48227"
         sodipodi:rx="147.48227"
         sodipodi:cy="308.88992"
         sodipodi:cx="343.45187"
         id="path3202-8"
         style="fill:#f1b80f;fill-opacity:1;stroke:#000000;stroke-width:1;stroke-miterlimit:4;stroke-opacity:1;stroke-dasharray:none"
         sodipodi:type="arc" />
      <path
         sodipodi:nodetypes="cccccccccccccccccccccccccccccccccccccccccccccccccccc"
         inkscape:connector-curvature="0"
         id="path3990"
         d="m 344.46429,248.61218 c -2.90465,3.67421 -2.89503,8.80839 -5.66061,12.59931 -1.73476,2.97564 -3.35236,6.06437 -5.76796,8.5614 -0.87963,2.12293 1.76096,2.53143 1.77274,4.52046 1.14716,2.06414 -1.02734,3.9338 -2.19275,5.47705 -2.65098,3.03861 -5.05755,6.32015 -7.97286,9.10964 -0.34,2.42872 2.72616,1.21606 4.24002,1.66289 1.8352,0.43036 0.57655,2.96469 -0.26152,4.00531 -2.63503,3.58763 -5.4253,7.10146 -8.97009,9.84818 -1.3494,1.48176 -3.47886,2.43652 -4.57235,3.97045 -0.89116,2.63458 1.17964,2.28417 3.1145,2.07075 1.68821,-0.10472 3.3161,-1.16824 4.38994,0.7853 0.19054,1.33241 -1.37808,3.18355 -2.45586,4.26783 -3.59223,3.71197 -7.01925,7.60932 -11.33836,10.50783 -1.05304,1.23572 -3.47888,1.61839 -3.78915,3.19477 -0.52291,2.36755 2.00169,2.03017 3.39623,1.25128 3.6562,-0.95869 6.94943,-3.33896 10.7121,-3.73973 1.79794,-0.83648 3.70192,1.20779 2.33914,2.72051 -2.36291,2.69516 -5.33276,4.91724 -8.03168,7.30709 -5.14983,3.93014 -10.91228,7.32955 -16.31533,10.98592 -0.88242,1.58431 0.72642,3.81883 2.62171,2.83959 6.6639,-1.55545 13.03916,-2.6969 19.71868,-4.36753 4.51863,-0.98347 11.08224,-1.58764 16.09482,-0.84437 2.21416,0.71531 -2.92802,7.31194 -1.32133,9.15625 2.23809,0.7857 20.14132,0.998 20.16066,0.4089 1.41481,-2.00392 -0.90775,-5.75822 -1.69643,-8.70982 -0.242,-2.6833 2.12433,-1.76596 3.91824,-1.6388 8.88225,0.95928 17.71049,2.36908 26.45902,4.17771 3.43424,0.47941 6.86195,1.10391 10.33703,0.67537 0.72,-2.16414 -1.48039,-2.6598 -2.90907,-3.60258 -4.87331,-2.81409 -9.65506,-5.76481 -14.04221,-9.30439 -3.34062,-2.31714 -6.30452,-5.23439 -9.04361,-8.16868 -1.75663,-2.06328 1.04161,-3.04337 2.29058,-1.25811 2.97737,2.41058 6.9067,3.16618 10.31145,4.83376 2.11219,-0.0212 4.40515,0.83 6.40307,0.25742 1.39971,-1.46401 -1.37803,-2.76882 -2.52793,-3.57342 -3.20336,-2.18683 -6.59293,-4.15313 -9.03912,-7.23667 -3.07119,-3.33264 -6.59213,-6.42662 -9.07836,-10.1807 -1.2393,-2.65126 1.32042,-1.75576 2.89352,-1.04969 2.53672,1.07964 4.94294,2.73436 7.82548,2.29003 2.5849,0.59415 1.12201,-2.48426 -0.36387,-3.02579 -5.82519,-4.84301 -11.00477,-10.37379 -16.38065,-15.69545 -0.64369,-2.14127 -0.3679,-3.27204 1.96429,-2.14286 1.8492,0.69771 3.54089,2.20268 5.625,1.69641 -0.0546,-1.86335 -0.71964,-3.44248 -2.14384,-4.66816 -3.06995,-3.70067 -6.37195,-7.26458 -9.29748,-11.05035 -0.35454,-1.29905 -2.26307,-4.15536 0.38922,-3.68787 2.71301,0.62775 1.5871,-2.09336 0.44487,-3.25842 -1.97957,-3.32956 -4.98954,-5.95044 -6.31219,-9.66124 -2.22471,-3.90278 -2.92881,-8.4516 -5.22345,-12.31682 -0.23808,1e-5 -0.47617,1e-5 -0.71425,2e-5 z"
         style="fill:#004c25;fill-opacity:1;stroke:#000000;stroke-width:1px;stroke-linecap:butt;stroke-linejoin:miter;stroke-opacity:1" />
      <path
         d="m 369.10974,320.50665 c 0,24.0115 -12.03013,43.47667 -26.87005,43.47667 -14.83993,0 -26.87006,-19.46517 -26.87006,-43.47667 0,-24.0115 12.03013,-43.47666 26.87006,-43.47666 14.83992,0 26.87005,19.46516 26.87005,43.47666 z"
         sodipodi:ry="43.476665"
         sodipodi:rx="26.870058"
         sodipodi:cy="320.50665"
         sodipodi:cx="342.23969"
         id="path3046"
         style="fill:#ffffff;fill-opacity:0;stroke:none"
         sodipodi:type="arc" />
      <g
         transform="matrix(0.00705993,0.99997508,-0.99997508,0.00705993,652.12986,-36.273012)"
         inkscape:transform-center-x="-0.044428793"
         inkscape:transform-center-y="-101.86844"
         style="font-size:56px;font-style:normal;font-variant:normal;font-weight:normal;font-stretch:normal;text-align:center;line-height:125%;letter-spacing:-2.07000017px;word-spacing:0px;text-anchor:middle;fill:#004c25;fill-opacity:1;stroke:none;font-family:Egyptian;-inkscape-font-specification:Egyptian"
         id="text3011">
        <path
           d="m 291.7371,415.42627 c 1.0833,-2.94298 3.06287,-5.07864 5.93871,-6.40699 2.82798,-1.30622 5.71343,-1.4177 8.65637,-0.33443 l 4.5721,1.68293 5.68714,-15.45056 6.30635,2.32128 -13.5408,36.78705 -10.87846,-4.00421 c -2.94293,-1.08329 -5.06107,-3.05641 -6.35442,-5.91937 -1.34122,-2.84086 -1.47021,-5.73276 -0.38699,-8.6757 m 6.30635,2.32128 c -0.43843,1.19118 -0.37447,2.3684 0.19187,3.53167 0.51848,1.18536 1.3733,1.99728 2.56447,2.43577 l 4.57211,1.68293 3.2111,-8.72379 -4.5721,-1.68293 c -1.19118,-0.43847 -2.36195,-0.39204 -3.51233,0.13932 -1.18536,0.51843 -2.00373,1.39077 -2.45512,2.61703"
           style="font-size:56px;letter-spacing:-2.07000017px;fill:#004c25;fill-opacity:1"
           id="path3785" />
        <path
           d="m 292.14433,382.38011 5.57569,3.751 -21.88085,32.52489 -5.57569,-3.751 21.88085,-32.52489"
           style="font-size:56px;letter-spacing:-2.07000017px;fill:#004c25;fill-opacity:1"
           id="path3787" />
        <path
           d="m 269.8151,360.08491 4.42213,5.05996 -11.03981,23.10955 17.70985,-15.47745 4.42213,5.05996 -29.51643,25.79575 -4.42212,-5.05996 10.06998,-22.26198 -16.74003,14.62988 -4.42213,-5.05996 29.51643,-25.79575"
           style="font-size:56px;letter-spacing:-2.07000017px;fill:#004c25;fill-opacity:1"
           id="path3789" />
        <path
           d="m 258.31659,334.81089 7.57684,18.07627 -36.15253,15.15369 -7.57685,-18.07627 6.19758,-2.59778 4.97907,11.87869 7.23051,-3.03073 -3.09568,-7.38545 6.19757,-2.59778 3.09569,7.38545 10.32929,-4.32963 -4.97907,-11.87869 6.19758,-2.59777"
           style="font-size:56px;letter-spacing:-2.07000017px;fill:#004c25;fill-opacity:1"
           id="path3791" />
        <path
           d="m 258.3446,285.55569 -1.04051,7.26183 -17.3063,4.70489 -0.30977,2.16192 16.29755,2.33521 -0.95315,6.65206 -38.80369,-5.56001 1.64418,-11.47481 c 0.44484,-3.10427 1.93212,-5.58776 4.46186,-7.45047 2.49814,-1.9049 5.29935,-2.63496 8.40361,-2.1902 2.32825,0.33364 4.34206,1.28219 6.04146,2.84568 1.69943,1.56354 2.82587,3.44095 3.3793,5.63225 l 18.18546,-4.91835 m -28.55936,3.09249 c -1.25648,-0.18002 -2.39439,0.12837 -3.41374,0.92515 -1.05095,0.75459 -1.66646,1.76012 -1.84653,3.0166 l -0.69103,4.82274 9.20202,1.31852 0.69103,-4.82275 c 0.18006,-1.25648 -0.10985,-2.39174 -0.86973,-3.40579 -0.75453,-1.05096 -1.77854,-1.66912 -3.07202,-1.85447"
           style="font-size:56px;letter-spacing:-2.07000017px;fill:#004c25;fill-opacity:1"
           id="path3793" />
        <path
           d="m 263.70781,273.51559 -2.57842,6.20565 -36.19967,-15.04073 2.57841,-6.20566 36.19968,15.04074"
           style="font-size:56px;letter-spacing:-2.07000017px;fill:#004c25;fill-opacity:1"
           id="path3795" />
        <path
           d="m 248.34021,225.15717 25.75623,31.25913 -3.18814,4.39799 -37.71999,-14.75531 4.07557,-5.62218 21.93739,8.571 -14.96949,-18.18311 4.10843,-5.66752"
           style="font-size:56px;letter-spacing:-2.07000017px;fill:#004c25;fill-opacity:1"
           id="path3797" />
        <path
           d="m 299.27294,233.44579 -15.58115,11.89066 -23.78131,-31.16231 15.58115,-11.89065 4.0768,5.3421 -10.23904,7.81386 4.75626,6.23246 6.36601,-4.85818 4.0768,5.34211 -6.36601,4.85818 6.79466,8.90352 10.23904,-7.81386 4.07679,5.34211"
           style="font-size:56px;letter-spacing:-2.07000017px;fill:#004c25;fill-opacity:1"
           id="path3799" />
        <path
           d="m 326.49999,222.81246 -6.91361,2.45335 -12.20849,-13.13761 -2.05825,0.73038 5.50598,15.51604 -6.33308,2.24734 -13.10947,-36.94295 10.92456,-3.87666 c 2.95543,-1.04871 5.84563,-0.88589 8.67059,0.48846 2.84764,1.32677 4.79584,3.46785 5.84462,6.42325 0.78655,2.21661 0.88249,4.44058 0.28782,6.6719 -0.5947,2.23138 -1.73361,4.10125 -3.41673,5.60963 l 12.80606,13.81687 M 310.48976,198.9614 c -0.42451,-1.19621 -1.22638,-2.06048 -2.40561,-2.59279 -1.15654,-0.57992 -2.33294,-0.65764 -3.52918,-0.23318 l -4.59148,1.62932 3.10882,8.76076 4.59148,-1.62932 c 1.19624,-0.42447 2.06674,-1.20875 2.61152,-2.35283 0.57994,-1.15651 0.65142,-2.3505 0.21445,-3.58196"
           style="font-size:56px;letter-spacing:-2.07000017px;fill:#004c25;fill-opacity:1"
           id="path3801" />
      </g>
      <g
         transform="matrix(0.99990398,-0.01385741,0.01385741,0.99990398,-5.8868943,4.8980797)"
         inkscape:transform-center-x="-0.041211823"
         inkscape:transform-center-y="97.70587"
         style="font-size:56px;font-style:normal;font-variant:normal;font-weight:normal;font-stretch:normal;text-align:center;line-height:125%;letter-spacing:6.80000019px;word-spacing:0px;text-anchor:middle;fill:#004c25;fill-opacity:1;stroke:none;font-family:Egyptian;-inkscape-font-specification:Egyptian"
         id="text3017">
        <path
           d="m 236.77477,357.17623 c -3.08979,1.00137 -6.09245,0.75793 -9.00798,-0.73032 -2.88004,-1.4998 -4.82075,-3.79458 -5.82214,-6.88434 -1.00139,-3.08979 -0.76371,-6.1102 0.71306,-9.06125 1.33175,-2.55086 3.21761,-4.30018 5.65761,-5.24795 l 3.27984,5.94226 c -0.24862,0.0806 -0.44395,0.14388 -0.586,0.18992 -1.13648,0.36832 -1.96974,1.18782 -2.4998,2.45848 -0.48305,1.29465 -0.5404,2.51022 -0.17207,3.6467 0.42587,1.31403 1.25014,2.2831 2.4728,2.90723 1.26965,0.64811 2.56151,0.75923 3.87557,0.33336 2.16638,-0.70214 3.32995,-2.19774 3.49072,-4.4868 l 0.59471,-7.61007 c 0.14725,-2.08848 0.88908,-3.97719 2.22547,-5.66616 1.33635,-1.68895 3.03447,-2.86723 5.09434,-3.53483 2.69909,-0.87477 5.39461,-0.61028 8.08657,0.79348 2.87999,1.49979 4.8207,3.79456 5.82214,6.88434 0.71359,2.2019 0.76592,4.42191 0.157,6.66003 -0.57349,2.22659 -1.66948,4.11236 -3.28796,5.6573 l -4.65207,-4.90884 c 1.55897,-1.48641 2.00467,-3.25954 1.33711,-5.31938 -0.43742,-1.34956 -1.27319,-2.35415 -2.50732,-3.01378 -1.03458,-0.5281 -1.99579,-0.64827 -2.88362,-0.36051 -1.66922,0.54098 -2.56397,1.65511 -2.68426,3.34241 l -0.54144,7.5928 c -0.17327,2.3716 -0.99385,4.50169 -2.46173,6.39028 -1.45642,1.92407 -3.3566,3.26595 -5.70055,4.02564"
           style="fill:#004c25"
           id="path3804" />
        <path
           d="m 245.96366,392.80988 -3.85314,-5.50561 14.31459,-10.01815 -5.58704,-7.98314 -14.31459,10.01815 -3.85314,-5.50561 32.11607,-22.47662 3.85313,5.50562 -12.24998,8.57322 5.58704,7.98313 12.24999,-8.57322 3.85313,5.50561 -32.11606,22.47662"
           style="fill:#004c25"
           id="path3806" />
        <path
           d="m 288.93341,403.87491 c -3.30767,4.33235 -6.6006,7.38424 -9.87881,9.1557 -4.56861,2.4772 -8.78169,2.24323 -12.63925,-0.70192 -2.10683,-1.60852 -3.51535,-3.67026 -4.22556,-6.18523 -0.68756,-2.54465 -0.56562,-5.01143 0.36582,-7.40034 1.46591,-3.7657 3.43357,-7.26577 5.90299,-10.50021 8.08783,-10.59347 15.54423,-13.28488 22.3692,-8.07424 6.82489,5.21069 6.19343,13.11276 -1.89439,23.70624 m -5.34125,-4.07791 c 5.34656,-7.00297 6.38781,-11.75049 3.12374,-14.24256 -3.26413,-2.49204 -7.56948,-0.23658 -12.91605,6.76639 -2.08428,2.72998 -3.72615,5.68028 -4.92561,8.85092 -0.41963,1.04177 -0.47724,2.10158 -0.17285,3.17943 0.30436,1.07785 0.90165,1.9566 1.79188,2.63625 3.20473,2.44674 7.57102,0.0499 13.09889,-7.19043"
           style="fill:#004c25"
           id="path3808" />
        <path
           d="m 312.45057,434.68118 -6.89645,-2.50118 -1.07253,-17.90233 -2.05314,-0.74463 -5.61334,15.47752 -6.31735,-2.29115 13.36508,-36.85125 10.89744,3.95225 c 2.94807,1.06923 5.07561,3.03222 6.38261,5.88897 1.35476,2.83443 1.49755,5.72568 0.42838,8.67376 -0.80194,2.21109 -2.14166,3.98883 -4.01916,5.33324 -1.87757,1.34442 -3.94541,2.06383 -6.20354,2.15824 l 1.102,18.80656 m 2.80334,-28.5892 c 0.43275,-1.19325 0.36317,-2.37016 -0.20872,-3.53071 -0.52412,-1.18287 -1.38281,-1.99071 -2.57606,-2.42351 l -4.58009,-1.66109 -3.16943,8.73901 4.58008,1.66109 c 1.19326,0.43279 2.3638,0.38077 3.51162,-0.15608 1.18287,-0.52408 1.99707,-1.40031 2.4426,-2.62871"
           style="fill:#004c25"
           id="path3810" />
        <path
           d="m 352.2407,405.537 -9.78521,-0.53815 -1.81743,33.04606 -6.70986,-0.36903 1.81743,-33.04606 -9.78521,-0.53815 0.33519,-6.09479 26.28029,1.44533 -0.3352,6.09479"
           style="fill:#004c25"
           id="path3812" />
        <path
           d="m 409.7799,420.72505 -17.69427,8.43048 -16.86095,-35.38854 6.06661,-2.89044 13.87415,29.1197 11.62766,-5.54002 2.9868,6.26882"
           style="fill:#004c25"
           id="path3814" />
        <path
           d="m 426.1376,408.64012 -5.28292,4.15321 -24.22705,-30.81704 5.28292,-4.15321 24.22705,30.81704"
           style="fill:#004c25"
           id="path3816" />
        <path
           d="m 453.18655,378.63753 -4.09692,5.3267 -24.82294,-6.30478 18.64343,14.33921 -4.09692,5.32669 -31.07238,-23.89868 4.09691,-5.32669 23.802,5.51953 -17.62248,-13.55396 4.09692,-5.3267 31.07238,23.89868"
           style="fill:#004c25"
           id="path3818" />
        <path
           d="m 468.06772,345.26908 -6.96998,18.31883 -36.63766,-13.93996 6.96998,-18.31883 6.28074,2.38971 -4.58027,12.03809 7.32753,2.78799 2.84774,-7.48455 6.28074,2.3897 -2.84774,7.48455 10.4679,3.98285 4.58027,-12.03809 6.28075,2.38971"
           style="fill:#004c25"
           id="path3820" />
      </g>
      <path
         transform="matrix(0.00315897,0,0,0.00315897,343.27603,309.27786)"
         d="m 490.93414,308.88992 c 0,81.45221 -66.03006,147.48227 -147.48227,147.48227 -81.4522,0 -147.48227,-66.03006 -147.48227,-147.48227 0,-81.45221 66.03007,-147.48227 147.48227,-147.48227 81.45221,0 147.48227,66.03006 147.48227,147.48227 z"
         sodipodi:ry="147.48227"
         sodipodi:rx="147.48227"
         sodipodi:cy="308.88992"
         sodipodi:cx="343.45187"
         id="path3202-1-48"
         style="fill:#000000;fill-opacity:1;stroke:#000000;stroke-width:1;stroke-miterlimit:4;stroke-opacity:1;stroke-dasharray:none"
         sodipodi:type="arc" />
    </g>
    <g
       style="font-size:40px;font-style:normal;font-variant:normal;font-weight:normal;font-stretch:normal;text-align:center;line-height:125%;letter-spacing:11.10000134px;word-spacing:0px;text-anchor:middle;fill:#004c25;fill-opacity:1;stroke:none;font-family:Egyptian;-inkscape-font-specification:Egyptian"
       id="text4031">
      <path
         d="m 77.019058,1042.3622 -5.24,0 -5.08,-11.76 -1.56,0 0,11.76 -4.8,0 0,-28 8.28,0 c 2.239986,0 4.146651,0.8 5.72,2.4 1.599981,1.5733 2.39998,3.48 2.4,5.72 -2e-5,1.68 -0.466686,3.2 -1.4,4.56 -0.933351,1.36 -2.146683,2.3467 -3.64,2.96 l 5.32,12.36 m -5.08,-19.88 c -1.5e-5,-0.9067 -0.333348,-1.68 -1,-2.32 -0.640013,-0.6667 -1.413346,-1 -2.32,-1 l -3.48,0 0,6.64 3.48,0 c 0.906654,0 1.679987,-0.32 2.32,-0.96 0.666652,-0.64 0.999985,-1.4267 1,-2.36"
         style=""
         id="path3823" />
      <path
         d="m 109.49531,1042.3622 -5,0 -1.28,-4.68 -6.439999,0 -1.28,4.68 -5,0 7.64,-28 3.719999,0 7.64,28 m -7.6,-9.48 -1.919999,-7 -1.88,7 3.799999,0"
         style=""
         id="path3825" />
      <path
         d="m 128.97969,1042.3622 -4.8,0 0,-28 4.8,0 0,28"
         style=""
         id="path3827" />
      <path
         d="m 161.31094,1042.3622 -14,0 0,-28 4.8,0 0,23.04 9.2,0 0,4.96"
         style=""
         id="path3829" />
      <path
         d="m 199.51907,1014.3622 -4.6,28 -3.96,0 -3.8,-15.2 -3.76,15.2 -3.96,0 -4.6,-28 4.88,0 2.24,13.76 3.44,-13.76 3.56,0 3.44,13.76 2.24,-13.76 4.88,0"
         style=""
         id="path3831" />
      <path
         d="m 230.84843,1042.3622 -5,0 -1.28,-4.68 -6.44,0 -1.28,4.68 -5,0 7.64,-28 3.72,0 7.64,28 m -7.6,-9.48 -1.92,-7 -1.88,7 3.8,0"
         style=""
         id="path3833" />
      <path
         d="m 262.09281,1014.3622 -7.08,18.72 0,9.28 -4.8,0 0,-9.28 -7.08,-18.72 5.16,0 4.32,11.48 4.32,-11.48 5.16,0"
         style=""
         id="path3835" />
    </g>
  </g>
</svg>
